<svg viewBox="0 0 391.353 350.788" height="350.788" width="391.353" xmlns="http://www.w3.org/2000/svg">
  <path fill="#b5ed0c" transform="translate(-2482.358 -3541.393)" d="M2841.52,3770.665a11.216,11.216,0,0,1-.686,6.454,21.964,21.964,0,0,1-4.677,7.059,34.762,34.762,0,0,1-7.964,6.159,37.975,37.975,0,0,1-9.648,3.865c-14.378,3.533-23.418-1.646-37.063-9.5l-.089-.053c-9.018-5.19-19.963-11.49-35.576-17.326q2.622-.784,5.315-1.487,4.683-1.219,9.791-2.231,7.677-1.51,14.531-2.583,6.469-1.011,12.433-1.673a24.014,24.014,0,0,0,5.051,5.331,28.565,28.565,0,0,0,7.568,4.147,32.64,32.64,0,0,0,11.8,2.151,32.215,32.215,0,0,0,11.712-2.365,39.766,39.766,0,0,0,5.527-2.732,48.055,48.055,0,0,0,4.724-3.211,16.946,16.946,0,0,1,4.747,3.4A9.739,9.739,0,0,1,2841.52,3770.665Zm-102.622-5.786c-4.969-1.658-10.338-3.254-16.172-4.738-5.995-1.527-12.549-2.962-19.739-4.257-12.924-2.328-24.35-4.852-34.409-7.61a194.4,194.4,0,0,1-26.2-8.995,92.13,92.13,0,0,1-19.14-10.855,46.819,46.819,0,0,1-11.825-12.7,36.04,36.04,0,0,1-5.221-16.618,56.509,56.509,0,0,1,2.768-20.291,58.053,58.053,0,0,1,8.29-16.883,50.506,50.506,0,0,1,12.788-12.534,42.772,42.772,0,0,1,10.061-5.026,31.063,31.063,0,0,1,9.858-1.763,21.991,21.991,0,0,1,2.361.124,18.193,18.193,0,0,1,2.179.374,11.02,11.02,0,0,1,7.241,4.847c1.453,2.413,1.9,5.607,1.248,9.415a85.469,85.469,0,0,0-1.081,16.366,101.449,101.449,0,0,0,1.9,17.239,85.782,85.782,0,0,0,6.4,19.7,66.432,66.432,0,0,0,10.429,15.977,57.088,57.088,0,0,0,21.292,15.043,73.3,73.3,0,0,0,27.84,5.015c.823.005,1.768-.011,2.833-.042.988-.026,1.946-.069,2.875-.121a190.538,190.538,0,0,0,26.486-3.3,148.54,148.54,0,0,0,21.374-5.878,40.54,40.54,0,0,0-.251,7.019,31.925,31.925,0,0,0,1.568,8.472c.252.747.522,1.454.8,2.111l.09.206q-5.342.632-11.181,1.551-6.951,1.1-14.305,2.545-5.612,1.106-11.044,2.554Q2743.836,3763.2,2738.9,3764.878Zm83.924-5.625q2.608.432,4.86,1.021.889.23,1.729.489a32.763,32.763,0,0,1-12.521,5.388,27.556,27.556,0,0,1-14.842-1.458,24.313,24.313,0,0,1-6.287-3.411,19.977,19.977,0,0,1-2.676-2.449q8.294-.725,15.329-.684A92.109,92.109,0,0,1,2822.822,3759.253Zm-163.948,110.831a50.221,50.221,0,0,1-4.294,9.805,36.933,36.933,0,0,1-2.922,4.325,145.509,145.509,0,0,1,2.463-15.464,154.118,154.118,0,0,1,8.4-27.072,111.631,111.631,0,0,1-.511,12.721A75.516,75.516,0,0,1,2658.875,3870.083Zm130.507-139.925a49.719,49.719,0,0,1,3.282-8.129,41.484,41.484,0,0,1,5.561-8.349,23.394,23.394,0,0,1,5.675-4.884,10.488,10.488,0,0,1,5.224-1.6l.546.019.537.062a5.873,5.873,0,0,1,2.931,1.12,2.025,2.025,0,0,1,.671,1.7c-.095,2.029-1.881,4.983-5.54,8.367a63.362,63.362,0,0,1-14.272,9.5c-1.045.53-2.171,1.078-3.374,1.631Zm56.5-10.567a25.517,25.517,0,0,1,5.559-1.165c1.885-.136,3.512.094,4.513.933l.213.2a4.542,4.542,0,0,1-.511.3,7.242,7.242,0,0,1-2.221.668,14.218,14.218,0,0,1-5.23-.221A15.826,15.826,0,0,1,2845.886,3719.591Zm-6.215,2.449.739-.343a20.638,20.638,0,0,0,6.261,2.78,18.84,18.84,0,0,0,7.446.414,11.106,11.106,0,0,0,4.089-1.4,5.042,5.042,0,0,0,2.348-2.876,3.9,3.9,0,0,0,0-2.093,5.118,5.118,0,0,0-1.752-2.553c-2.005-1.683-4.733-2.16-7.642-1.959a35.2,35.2,0,0,0-10.12,2.615,17.515,17.515,0,0,1-1.5-1.473,20.258,20.258,0,0,1-1.842-2.39,98,98,0,0,1-10.255-21.747,196.512,196.512,0,0,1-5.735-20.747,42.433,42.433,0,0,0-6.011-13.863,41.892,41.892,0,0,0-10.378-10.793q-.678-.492-1.435-.993l-.532-.348a14.722,14.722,0,0,0,.632-3.152,15.359,15.359,0,0,0-.262-4.387,19.749,19.749,0,0,0-4.113-8.367,33.869,33.869,0,0,0-8.261-7.217,57.142,57.142,0,0,0-12.567-5.851,87.088,87.088,0,0,0-15.473-3.558,244.946,244.946,0,0,1-24.767-4.641,120.746,120.746,0,0,1-18.829-6.16,56.687,56.687,0,0,1-13.235-7.7,29.131,29.131,0,0,1-7.753-9.232,81.176,81.176,0,0,0-7.256-11.106,111.747,111.747,0,0,0-9.536-11l-1.183-1.169-.657-.629a38.211,38.211,0,0,1,2.988-10.325c1.151-2.3,2.447-3.621,3.852-3.9,1.918-.378,4.441.93,7.419,3.781,3.231,3.086,6.867,7.922,10.754,14.352a21.029,21.029,0,0,0,7.39,7.307,20.619,20.619,0,0,0,9.943,2.8,87.575,87.575,0,0,1,26.213,4.127c8.7,2.74,18.573,7.044,33.344,13.483l4.855,2.115c13.8,6.005,21.374,11.932,25.958,18.375,4.564,6.416,6.242,13.494,8.184,21.716a123.991,123.991,0,0,0,6.7,21.71,103.207,103.207,0,0,0,11.573,19.686c4.453,6.11,9.212,11.72,13.673,16.976,4.39,5.173,8.483,9.995,11.477,14.385,2.9,4.25,4.771,8.079,4.874,11.406a13.029,13.029,0,0,1-.646,4.692,9.686,9.686,0,0,1-2.2,3.583,13.193,13.193,0,0,1-4.784,3.03,22.211,22.211,0,0,1-6.571,1.38,51.315,51.315,0,0,1-10.2-4.61A24.034,24.034,0,0,1,2839.671,3722.04Zm-48.633-70.154a20.6,20.6,0,0,1-12.141,2.964,30.879,30.879,0,0,1-13.735-4.778,53.694,53.694,0,0,1-7.185-5.241c-1-.855-1.872-1.665-2.612-2.381a86.56,86.56,0,0,1,25.123-1.287,49.041,49.041,0,0,1,17.088,4.9,16.309,16.309,0,0,1-2.125,2.5A23.855,23.855,0,0,1,2791.038,3651.886ZM2658.8,3580.292c13.627.815,22.188,7.984,29.732,14.338l1.626,1.369c1.946,1.626,3.449,2.914,4.594,3.937,1.168,1.042,2.053,1.885,2.739,2.607.292.307.529.572.723.8a31.362,31.362,0,0,1-3.757-.107c-4.078-.309-9.977-1.125-18.131-2.254l-.069-.007a31.733,31.733,0,0,0-12.807.528,21.047,21.047,0,0,0-9.725,5.752,30.546,30.546,0,0,0-5.44,8.087,88.288,88.288,0,0,0-3.452,8.592c-.766,2.112-1.508,4.167-2.3,5.91a16.831,16.831,0,0,1-1.953,3.39c-.587-1.589-1.078-5.107-1.35-10.119a180.852,180.852,0,0,1,.45-22.8c.259-3.4.582-6.7.959-9.861q.514-4.328,1.163-8.274a64.685,64.685,0,0,1,8.476-1.607A48.371,48.371,0,0,1,2658.8,3580.292Zm40.215,23.408.011-.021Zm142.671,152.208a89.673,89.673,0,0,0,10.152-13.227c2.1-3.308,3.579-6.062,4.339-7.547a26.953,26.953,0,0,0,5.253-.983,18.622,18.622,0,0,0,8.182-4.71,14.048,14.048,0,0,0,3.181-5.136,17.385,17.385,0,0,0,.9-6.339c-.257-8.333-8.2-17.687-17.387-28.516-4.429-5.218-9.151-10.781-13.439-16.662a98.954,98.954,0,0,1-11.123-18.9,120.259,120.259,0,0,1-6.456-20.967l-.032-.142c-3.988-16.857-7.216-30.185-36.652-42.993l-4.854-2.115c-14.983-6.531-25-10.9-33.9-13.7a91.62,91.62,0,0,0-27.329-4.28,16.139,16.139,0,0,1-7.808-2.208,16.58,16.58,0,0,1-5.83-5.765,82.3,82.3,0,0,0-10.43-14.175c-4.032-4.165-8.318-6.816-12.382-6.015-2.619.516-4.785,2.3-6.519,5.382a34.794,34.794,0,0,0-3.315,9.732,54.505,54.505,0,0,0-7.7-5.49,24.247,24.247,0,0,0-10.521-3.545,12.76,12.76,0,0,0-6.8,1.429,14.52,14.52,0,0,0-5.243,4.957,42.821,42.821,0,0,0-4.588,10.342,115.586,115.586,0,0,0-3.457,14.317,119.781,119.781,0,0,0-20.208,8.228,226.333,226.333,0,0,0-24.055,14.348c-20.616,13.912-42.918,28.729-63.485,42.3-41.079,27.1-37.075,23.616-37.6,23.954a2.208,2.208,0,0,0,.739,4.014,2.191,2.191,0,0,0,1.663-.3l.062-.045c2.538-1.645,41.2-25.838,101.1-66.255a224.018,224.018,0,0,1,23.1-13.832,120.147,120.147,0,0,1,17.883-7.544c-.338,2.212-.646,4.5-.92,6.839-.365,3.1-.677,6.311-.928,9.615a184.01,184.01,0,0,0-.368,24.894c.435,6.3,1.495,11.107,3.388,12.647a3.322,3.322,0,0,0,2.542.741,4.039,4.039,0,0,0,2.307-1.253c2.623-2.649,4.188-6.979,5.845-11.561l0-.01c1.874-5.192,4-11.074,7.907-15.1a16.748,16.748,0,0,1,7.822-4.588,27.466,27.466,0,0,1,10.937-.4c9.885,1.367,16.138,2.205,20.1,2.4,4.594.225,6.516-.474,7.318-2.282.674-1.529.165-3.134-1.792-5.344a84.329,84.329,0,0,0-8.285-7.522l-1.529-1.28c-8.093-6.817-17.268-14.542-32.4-15.449a52.266,52.266,0,0,0-8.906.258,66.736,66.736,0,0,0-7.508,1.293,104.973,104.973,0,0,1,2.979-11.9,38.177,38.177,0,0,1,4.03-9.086,10.153,10.153,0,0,1,3.61-3.468,8.439,8.439,0,0,1,4.521-.946,19.573,19.573,0,0,1,8.213,2.76,54.75,54.75,0,0,1,10.021,7.529,2.794,2.794,0,0,0,.409.38,103.322,103.322,0,0,1,10.4,11.408,79.853,79.853,0,0,1,7.954,11.927,33.4,33.4,0,0,0,8.808,10.561,60.912,60.912,0,0,0,14.359,8.4,124.8,124.8,0,0,0,19.473,6.385,249.318,249.318,0,0,0,25.266,4.742,82.478,82.478,0,0,1,14.627,3.352,52.623,52.623,0,0,1,11.646,5.4,29.6,29.6,0,0,1,7.119,6.159,15.457,15.457,0,0,1,3.3,6.567,10.558,10.558,0,0,1-.021,4.4,54.686,54.686,0,0,0-20.76-5.472,98.939,98.939,0,0,0-28.085,2.384,2.231,2.231,0,0,0-1.01.511,2.272,2.272,0,0,0-.624.941,2.2,2.2,0,0,0,.408,2.138,56.689,56.689,0,0,0,6.414,6.217,57.672,57.672,0,0,0,7.132,5.122,35.179,35.179,0,0,0,15.851,5.386,24.985,24.985,0,0,0,14.6-3.544,28.194,28.194,0,0,0,5.272-3.965,20.327,20.327,0,0,0,2.847-3.407,37.613,37.613,0,0,1,9.709,9.319,38.276,38.276,0,0,1,6.276,13.615,201.111,201.111,0,0,0,5.882,21.274A102.216,102.216,0,0,0,2834,3715.189a24.038,24.038,0,0,0,1.94,2.573l.742.818c-.481.242-.968.492-1.441.749a2.25,2.25,0,0,0-.663.574,2.184,2.184,0,0,0-.4.793,2.189,2.189,0,0,0,.249,1.709,22.9,22.9,0,0,0,7.124,6.9,51.518,51.518,0,0,0,10.088,4.963c-.851,1.594-2.173,3.934-3.921,6.643a84.622,84.622,0,0,1-9.255,11.969q-1.364,1.451-2.737,2.748c-.7.664-1.418,1.306-2.137,1.92a41.457,41.457,0,0,0-4.238-1.4,57.871,57.871,0,0,0-5.822-1.26,97.159,97.159,0,0,0-15.408-1.156,177.33,177.33,0,0,0-17.935.933,24.384,24.384,0,0,1-2.469-8.4,38.27,38.27,0,0,1,.383-10.736,83.507,83.507,0,0,0,20.783-11.777c6-4.867,9.153-9.694,9.33-13.443a6.3,6.3,0,0,0-1.925-5,9.783,9.783,0,0,0-5.428-2.4,13.5,13.5,0,0,0-8.146,1.511,26.408,26.408,0,0,0-7.823,6.356,45.757,45.757,0,0,0-6.153,9.227,53.842,53.842,0,0,0-4.16,10.895l-.348,1.4a137.658,137.658,0,0,1-20.166,5.994,182.511,182.511,0,0,1-28.833,3.845c-11.044.626-20.887-.619-29.463-3.707a52.871,52.871,0,0,1-21.841-14.717c-7.31-8.19-12.081-18.618-14.8-29.338a90.6,90.6,0,0,1-1.786-36.26c.841-4.9.158-9.167-1.87-12.5a15.323,15.323,0,0,0-9.958-6.811,29.005,29.005,0,0,0-13.626.4,45.967,45.967,0,0,0-14.315,6.53,54.943,54.943,0,0,0-13.9,13.6,62.532,62.532,0,0,0-8.937,18.195,60.786,60.786,0,0,0-2.954,21.973,40.385,40.385,0,0,0,5.859,18.526,51.123,51.123,0,0,0,12.829,13.845,96.289,96.289,0,0,0,20.141,11.462,198.9,198.9,0,0,0,26.757,9.19c10.209,2.8,21.774,5.36,34.835,7.711,6.542,1.18,12.594,2.486,18.206,3.885q6.217,1.553,11.71,3.24a138.843,138.843,0,0,0-17.847,8.5,127.106,127.106,0,0,0-18.884,13.089,125.757,125.757,0,0,0-17.655,18.121,133.765,133.765,0,0,0-11.962,17.834q-.759-6.115-1.984-12.587-1.668-8.824-4.2-18.257c-2.033-7.592-4.169-13.279-6.541-17.287-2.5-4.221-5.3-6.642-8.543-7.5-4.538-1.2-9.3.765-14.818,4.969-5.248,4-11.231,10.061-18.435,17.357l-.01.011c-25.136,25.461-63.124,63.939-126.892,70.391a2.209,2.209,0,0,0-1.5.8,2.184,2.184,0,0,0-.5,1.48l.011.14a2.2,2.2,0,0,0,2.28,1.985l.135-.01a176.348,176.348,0,0,0,22.616-3.772,171.166,171.166,0,0,0,21.707-6.642,176.049,176.049,0,0,0,18.08-8.1,190.48,190.48,0,0,0,17.539-10.291,237.185,237.185,0,0,0,27.969-21.831c8.165-7.346,15.322-14.6,21.7-21.057,6.679-6.766,12.435-12.6,17.361-16.456,4.666-3.654,8.518-5.524,11.624-4.7,2.147.567,4.155,2.487,6.087,5.873,2.066,3.622,3.995,8.841,5.853,15.782,1.932,7.218,3.414,13.914,4.514,20.113,1.074,6.044,1.79,11.6,2.209,16.7l-.4.839a154.235,154.235,0,0,0-10.186,27.967,139.541,139.541,0,0,0-4.635,29.109,2.206,2.206,0,0,0,.3,1.143,2.159,2.159,0,0,0,1.365,1.03,2.077,2.077,0,0,0,.549.076,2.232,2.232,0,0,0,.637-.095,2.26,2.26,0,0,0,.584-.275c.293-.2,3.695-2.528,7.318-8.292a53.433,53.433,0,0,0,5.446-11.883,77.488,77.488,0,0,0,3.083-13.93,110.773,110.773,0,0,0,.877-15.972c-.02-1.527-.066-3.052-.138-4.568q-.1-2.2-.266-4.331a126.527,126.527,0,0,1,29.772-38.758,129.1,129.1,0,0,1,42.588-24.52,192.146,192.146,0,0,1,23.082,9.582c6.655,3.282,12.205,6.477,17.159,9.328l.035.02c11.3,6.5,19.625,11.3,30.387,11.293a36.847,36.847,0,0,0,4.826-.313,46.005,46.005,0,0,0,5.177-.973,41.1,41.1,0,0,0,19.964-11.5c4.954-5.331,7.524-11.611,6.269-17.281a13.987,13.987,0,0,0-3.277-6.3,19.689,19.689,0,0,0-4.651-3.774l1.167-1.088Q2840.392,3757.287,2841.69,3755.907Z" data-name="Path 748" id="Path_748"></path>
</svg>
